<svg width="22" height="22" viewBox="0 0 22 22" fill="none" xmlns="http://www.w3.org/2000/svg">
<path d="M8.25065 10.9993C10.2757 10.9993 11.9173 9.35773 11.9173 7.33268C11.9173 5.30764 10.2757 3.66602 8.25065 3.66602C6.22561 3.66602 4.58398 5.30764 4.58398 7.33268C4.58398 9.35773 6.22561 10.9993 8.25065 10.9993Z" fill="#606469"/>
<path d="M8.25033 12.832C5.80283 12.832 0.916992 14.0604 0.916992 16.4987V17.4154C0.916992 17.9195 1.32949 18.332 1.83366 18.332H14.667C15.1712 18.332 15.5837 17.9195 15.5837 17.4154V16.4987C15.5837 14.0604 10.6978 12.832 8.25033 12.832Z" fill="#606469"/>
<path d="M18.3333 9.16602V6.41602H16.5V9.16602H13.75V10.9993H16.5V13.7493H18.3333V10.9993H21.0833V9.16602H18.3333Z" fill="#606469"/>
</svg>
