<svg width="22" height="22" viewBox="0 0 22 22" fill="none" xmlns="http://www.w3.org/2000/svg">
<path d="M11 18.3327L10.2117 17.5443C9.13 16.4627 9.13917 14.7027 10.23 13.6393L11 12.8877C10.6425 12.851 10.3767 12.8327 10.0833 12.8327C7.63583 12.8327 2.75 14.061 2.75 16.4993V18.3327H11ZM10.0833 10.9993C12.1092 10.9993 13.75 9.35852 13.75 7.33268C13.75 5.30685 12.1092 3.66602 10.0833 3.66602C8.0575 3.66602 6.41667 5.30685 6.41667 7.33268C6.41667 9.35852 8.0575 10.9993 10.0833 10.9993Z" fill="#245EF3"/>
<path d="M14.8315 18.1318C14.474 18.4893 13.8873 18.4893 13.5298 18.1318L11.6323 16.216C11.284 15.8585 11.284 15.2902 11.6323 14.9418L11.6415 14.9327C11.999 14.5752 12.5765 14.5752 12.9248 14.9327L14.1807 16.1885L18.2415 12.1002C18.599 11.7427 19.1765 11.7427 19.534 12.1002L19.5432 12.1093C19.8915 12.4668 19.8915 13.0352 19.5432 13.3835L14.8315 18.1318Z" fill="#245EF3"/>
</svg>
