<svg width="15" height="15" viewBox="0 0 15 15" fill="none" xmlns="http://www.w3.org/2000/svg">
<path d="M7.49227 0.416016C3.58227 0.416016 0.416016 3.58935 0.416016 7.49935C0.416016 11.4093 3.58227 14.5827 7.49227 14.5827C11.4093 14.5827 14.5827 11.4093 14.5827 7.49935C14.5827 3.58935 11.4093 0.416016 7.49227 0.416016ZM9.78018 11.3173L7.49935 9.9431L5.21852 11.3173C4.94935 11.4802 4.61643 11.2393 4.68727 10.9348L5.28935 8.34227L3.28477 6.60685C3.05102 6.40143 3.17852 6.01185 3.49018 5.98352L6.13935 5.75685L7.17352 3.3131C7.29393 3.02268 7.70477 3.02268 7.82518 3.3131L8.85935 5.74977L11.5085 5.97643C11.8202 6.00477 11.9477 6.39435 11.7069 6.59977L9.70227 8.33518L10.3043 10.9348C10.3752 11.2393 10.0493 11.4802 9.78018 11.3173Z" fill="#6D72FB"/>
</svg>
